# xmcd
#
# Track frame offsets: 
#        150
#        12948
#        28817
#        41683
#        53609
#        63734
#        85510
#        97398
#        114270
#        123896
#        143080
#        154839
#        172035
#
# Disc length: 2413 seconds
#
# Revision: 0
# Processed by: cddbd v1.5.1PL2 Copyright (c) Steve Scherf et al.
# Submitted via: ExactAudioCopy v0.95b3
#
DISCID=aa096b0d
DTITLE=Kayla Woodson - Life Isn't Easy
DYEAR=2004
DGENRE=Country
TTITLE0=Let 'Er Rip
TTITLE1=A Broken Wing
TTITLE2=Life Isn't Easy
TTITLE3=Sweet Dreams (Of You)
TTITLE4=Sweet Nothin's
TTITLE5=Where Would You Be
TTITLE6=Inside Out
TTITLE7=Sign
TTITLE8=Blue Moon Of Kentucky
TTITLE9=Prisoner Of War
TTITLE10=It's A Little Too Late
TTITLE11=Unchained Melody
TTITLE12=Cowboy's Sweetheart
EXTD=
EXTT0=
EXTT1=
EXTT2=
EXTT3=
EXTT4=
EXTT5=
EXTT6=
EXTT7=
EXTT8=
EXTT9=
EXTT10=
EXTT11=
EXTT12=
PLAYORDER=
